<svg width="33" height="36" viewBox="0 0 33 36" fill="none" xmlns="http://www.w3.org/2000/svg">
<g filter="url(#filter0_d_7_54)">
<path d="M17.5958 3.55416C17.3052 3.26358 16.911 3.10034 16.5 3.10034C16.089 3.10034 15.6948 3.26358 15.4041 3.55416L4.55412 14.4042C4.27178 14.6965 4.11555 15.088 4.11908 15.4944C4.12261 15.9008 4.28562 16.2896 4.573 16.577C4.86039 16.8644 5.24914 17.0274 5.65555 17.0309C6.06195 17.0344 6.45349 16.8782 6.74582 16.5959L7.19997 16.1417V26.35C7.19997 26.7611 7.36328 27.1553 7.65396 27.446C7.94464 27.7367 8.33889 27.9 8.74997 27.9H11.85C12.2611 27.9 12.6553 27.7367 12.946 27.446C13.2367 27.1553 13.4 26.7611 13.4 26.35V23.25C13.4 22.8389 13.5633 22.4447 13.854 22.154C14.1446 21.8633 14.5389 21.7 14.95 21.7H18.05C18.4611 21.7 18.8553 21.8633 19.146 22.154C19.4367 22.4447 19.6 22.8389 19.6 23.25V26.35C19.6 26.7611 19.7633 27.1553 20.054 27.446C20.3446 27.7367 20.7389 27.9 21.15 27.9H24.25C24.6611 27.9 25.0553 27.7367 25.346 27.446C25.6367 27.1553 25.8 26.7611 25.8 26.35V16.1417L26.2541 16.5959C26.5465 16.8782 26.938 17.0344 27.3444 17.0309C27.7508 17.0274 28.1396 16.8644 28.4269 16.577C28.7143 16.2896 28.8773 15.9008 28.8809 15.4944C28.8844 15.088 28.7282 14.6965 28.4458 14.4042L17.5958 3.55416V3.55416Z" fill="#ADADAF"/>
</g>
<defs>
<filter id="filter0_d_7_54" x="-3" y="0" width="39" height="39" filterUnits="userSpaceOnUse" color-interpolation-filters="sRGB">
<feFlood flood-opacity="0" result="BackgroundImageFix"/>
<feColorMatrix in="SourceAlpha" type="matrix" values="0 0 0 0 0 0 0 0 0 0 0 0 0 0 0 0 0 0 127 0" result="hardAlpha"/>
<feOffset dy="4"/>
<feGaussianBlur stdDeviation="2"/>
<feComposite in2="hardAlpha" operator="out"/>
<feColorMatrix type="matrix" values="0 0 0 0 0 0 0 0 0 0 0 0 0 0 0 0 0 0 0.25 0"/>
<feBlend mode="normal" in2="BackgroundImageFix" result="effect1_dropShadow_7_54"/>
<feBlend mode="normal" in="SourceGraphic" in2="effect1_dropShadow_7_54" result="shape"/>
</filter>
</defs>
</svg>
